<mxfile host="app.diagrams.net" modified="2021-04-16T11:59:41.464Z" agent="5.0 (Windows NT 10.0; Win64; x64) AppleWebKit/537.36 (KHTML, like Gecko) Chrome/89.0.4389.128 Safari/537.36" etag="soM2o0mN3E5cT2ekMlQQ" version="14.6.1" type="github">
  <diagram id="eZPWgW9MZpcaZXekOqfz" name="Page-1">
    <mxGraphModel dx="2586" dy="1048" grid="1" gridSize="10" guides="1" tooltips="1" connect="1" arrows="1" fold="1" page="1" pageScale="1" pageWidth="850" pageHeight="1100" math="0" shadow="0">
      <root>
        <mxCell id="0" />
        <mxCell id="1" parent="0" />
        <mxCell id="hPgbDsXFDZMTgN8Yc9W_-1" value="&lt;font style=&quot;font-size: 26px&quot;&gt;How to add mongoose database to your appjs&amp;nbsp;&lt;/font&gt;" style="rounded=1;whiteSpace=wrap;html=1;" vertex="1" parent="1">
          <mxGeometry x="-800" y="40" width="730" height="60" as="geometry" />
        </mxCell>
      </root>
    </mxGraphModel>
  </diagram>
</mxfile>
